<?xml version="1.0" standalone="no"?>
<!DOCTYPE svg PUBLIC "-//W3C//DTD SVG 20010904//EN"
 "http://www.w3.org/TR/2001/REC-SVG-20010904/DTD/svg10.dtd">
<svg version="1.0" xmlns="http://www.w3.org/2000/svg"
 width="255.000000pt" height="256.000000pt" viewBox="0 0 255.000000 256.000000"
 preserveAspectRatio="xMidYMid meet">

<g transform="translate(0.000000,256.000000) scale(0.100000,-0.100000)"
fill="#000000" stroke="none">
<path d="M63 2529 c-66 -42 -63 4 -63 -1075 0 -941 1 -976 19 -1012 36 -69 22
-66 476 -72 l410 -5 5 -137 c6 -153 15 -177 81 -211 32 -16 83 -17 751 -15
709 3 717 3 745 24 59 43 58 35 61 569 3 524 0 574 -45 656 -15 29 -145 166
-354 375 l-329 328 0 244 c0 272 -4 295 -65 332 -32 20 -48 20 -846 20 -800 0
-815 -1 -846 -21z m1379 -176 c13 -12 18 -30 18 -70 0 -102 53 -93 -545 -93
-598 0 -555 -7 -555 87 0 100 -43 93 548 93 466 0 517 -2 534 -17z m198 -847
c0 -443 -28 -416 422 -416 l308 0 0 -450 0 -450 -637 2 -638 3 -3 800 c-1 440
0 806 3 813 3 9 68 12 275 12 l270 0 0 -314z m400 -21 l205 -205 -213 0 -212
0 0 205 c0 113 3 205 8 205 4 0 99 -92 212 -205z"/>
</g>
</svg>
